# xmcd
#
# Track frame offsets: 
#        150
#        13625
#        32925
#        50405
#        65703
#        83455
#        101349
#        116192
#        131843
#        150144
#
# Disc length: 2282 seconds
#
# Revision: 0
# Processed by: cddbd v1.5.2PL0 Copyright (c) Steve Scherf et al.
# Submitted via: ExactAudioCopyFreeDBPlugin 1.0
#
DISCID=7908e80a
DTITLE=John Paul White - Beulah
DYEAR=2016
DGENRE=Country
TTITLE0=Black Leaf
TTITLE1=What's So
TTITLE2=The Once And Future Queen
TTITLE3=Make You Cry
TTITLE4=Fight For You
TTITLE5=Hope I Die
TTITLE6=John Paul White (with The Secret Sisters) - I've Been Over Thi
TTITLE6=s Before
TTITLE7=The Martyr
TTITLE8=Hate The Way You Love Me
TTITLE9=I'll Get Even
EXTD=
EXTT0=
EXTT1=
EXTT2=
EXTT3=
EXTT4=
EXTT5=
EXTT6=
EXTT7=
EXTT8=
EXTT9=
PLAYORDER=
